<?xml version="1.0" standalone="no"?>
<!DOCTYPE svg PUBLIC "-//W3C//DTD SVG 20010904//EN"
 "http://www.w3.org/TR/2001/REC-SVG-20010904/DTD/svg10.dtd">
<svg version="1.0" xmlns="http://www.w3.org/2000/svg"
 width="256.000000pt" height="256.000000pt" viewBox="0 0 256.000000 256.000000"
 preserveAspectRatio="xMidYMid meet">

<g transform="translate(0.000000,256.000000) scale(0.100000,-0.100000)"
fill="#000000" stroke="none">
<path d="M380 1728 c-46 -13 -84 -42 -109 -81 -16 -26 -71 -241 -71 -278 0 -5
27 -9 60 -9 l60 0 6 40 7 40 57 0 58 0 -5 -41 -6 -40 59 3 59 3 32 155 c17 85
34 170 38 188 l6 32 -108 -1 c-59 0 -124 -5 -143 -11z m110 -95 c0 -10 -5 -35
-11 -55 -10 -38 -10 -38 -64 -38 -55 0 -55 0 -55 30 0 46 39 80 90 80 31 0 40
-4 40 -17z"/>
<path d="M715 1728 c-7 -24 -75 -343 -75 -356 0 -8 19 -12 59 -12 l59 0 18 93
18 92 23 -52 c22 -51 24 -53 63 -53 33 0 45 6 74 38 l35 37 -14 -60 c-23 -96
-24 -95 44 -95 l58 0 37 183 c20 100 36 185 36 190 0 4 -25 7 -55 7 -46 0 -56
-3 -66 -22 -20 -39 -132 -160 -139 -151 -13 16 -60 135 -60 154 0 16 -7 19
-55 19 -36 0 -57 -5 -60 -12z"/>
<path d="M1236 1731 c-3 -5 -22 -82 -41 -172 -20 -90 -38 -172 -41 -182 -5
-16 1 -18 57 -15 l63 3 9 38 c8 32 13 37 36 37 23 0 31 -7 46 -40 17 -39 20
-40 67 -40 26 0 48 5 48 10 0 6 -9 29 -20 51 -20 37 -20 40 -3 46 31 11 72 55
84 90 24 73 -20 151 -97 172 -47 13 -201 15 -208 2z m200 -116 c4 -16 0 -34
-10 -50 -14 -21 -24 -25 -67 -25 l-51 0 7 33 c14 68 13 67 65 67 45 0 50 -3
56 -25z"/>
<path d="M1634 1727 c-3 -8 -4 -49 -2 -93 l3 -79 288 -3 c158 -1 287 -4 287
-7 0 -3 -106 -160 -236 -351 -129 -190 -238 -352 -241 -360 -4 -12 16 -14 124
-14 l130 0 118 258 c65 141 149 319 187 396 55 112 68 147 68 186 0 83 13 80
-379 80 -276 0 -343 -3 -347 -13z"/>
<path d="M1354 1304 c-39 -21 -39 -21 -19 -44 14 -15 21 -17 38 -9 14 8 30 8
57 -1 31 -10 42 -10 68 4 28 15 30 19 20 36 -14 22 -14 22 -43 11 -12 -5 -35
-3 -56 5 -31 10 -41 10 -65 -2z"/>
<path d="M947 1224 c-2 -5 -13 -46 -22 -91 l-18 -83 -222 0 -222 0 13 58 c22
93 23 92 -45 92 l-59 0 -23 -122 c-28 -144 -43 -168 -109 -168 l-40 0 0 -45
c0 -44 1 -45 33 -45 80 0 163 43 192 100 l15 29 370 3 370 3 36 37 c65 65 55
164 -22 215 -21 14 -53 19 -135 21 -58 2 -109 0 -112 -4z m197 -110 c20 -52
-10 -84 -76 -84 -42 0 -49 3 -44 18 2 9 7 32 11 50 6 31 8 32 55 32 34 0 50
-4 54 -16z"/>
<path d="M1342 1088 c-31 -146 -33 -140 36 -136 l57 3 22 105 c12 58 22 111
23 118 0 8 -18 12 -58 12 l-59 0 -21 -102z"/>
</g>
</svg>
